<svg xmlns="http://www.w3.org/2000/svg" width="22" height="22" viewBox="0 0 22 22" fill="none">
  <path d="M11.6664 3.37977C11.7491 3.29226 11.8137 3.18931 11.8567 3.07681C11.8996 2.96431 11.9199 2.84446 11.9165 2.7241C11.9131 2.60374 11.886 2.48523 11.8368 2.37533C11.7876 2.26544 11.7172 2.16631 11.6297 2.08361C11.5422 2.00091 11.4393 1.93626 11.3268 1.89334C11.2143 1.85043 11.0944 1.83009 10.9741 1.8335C10.8537 1.8369 10.7352 1.86398 10.6253 1.91319C10.5154 1.96239 10.4163 2.03276 10.3336 2.12027L2.5419 10.3703C2.38099 10.5405 2.29133 10.7658 2.29133 11C2.29133 11.2342 2.38099 11.4596 2.5419 11.6298L10.3336 19.8807C10.4157 19.9701 10.5148 20.0423 10.6251 20.0931C10.7354 20.144 10.8547 20.1723 10.9761 20.1766C11.0974 20.181 11.2184 20.1611 11.3321 20.1183C11.4457 20.0754 11.5497 20.0104 11.638 19.927C11.7263 19.8437 11.7971 19.7436 11.8464 19.6326C11.8957 19.5216 11.9224 19.4019 11.9251 19.2805C11.9277 19.1591 11.9062 19.0384 11.8618 18.9254C11.8174 18.8123 11.751 18.7092 11.6664 18.6221L4.46873 11L11.6664 3.37977Z" fill="url(#paint0_linear_0_212)"/>
  <defs>
    <linearGradient id="paint0_linear_0_212" x1="9.01082" y1="1.83313" x2="-1.40601" y2="3.53071" gradientUnits="userSpaceOnUse">
      <stop offset="0.214719" stop-color="#1678EA"/>
      <stop offset="1" stop-color="#0E3869"/>
    </linearGradient>
  </defs>
</svg>