<svg xmlns="http://www.w3.org/2000/svg" width="22" height="22" viewBox="0 0 22 22" fill="none">
  <path d="M19.25 11C19.25 10.6353 19.1051 10.2856 18.8473 10.0277C18.5894 9.76986 18.2397 9.625 17.875 9.625L6.985 9.625L10.5967 6.01333C10.8395 5.75268 10.9718 5.40793 10.9655 5.05171C10.9592 4.69549 10.8149 4.35562 10.563 4.10369C10.311 3.85177 9.97118 3.70746 9.61496 3.70118C9.25874 3.69489 8.91399 3.82712 8.65333 4.07L2.695 10.0283C2.43751 10.2861 2.29288 10.6356 2.29288 11C2.29288 11.3644 2.43751 11.7139 2.695 11.9717L8.65333 17.93C8.77921 18.0651 8.93102 18.1734 9.09968 18.2486C9.26835 18.3237 9.45042 18.3642 9.63504 18.3674C9.81966 18.3707 10.0031 18.3367 10.1743 18.2676C10.3455 18.1984 10.501 18.0955 10.6316 17.9649C10.7621 17.8343 10.8651 17.6788 10.9342 17.5076C11.0034 17.3364 11.0373 17.153 11.0341 16.9684C11.0308 16.7838 10.9904 16.6017 10.9153 16.433C10.8401 16.2643 10.7318 16.1125 10.5967 15.9867L6.985 12.375L17.875 12.375C18.634 12.375 19.25 11.759 19.25 11Z" fill="white"/>
</svg>