<svg xmlns="http://www.w3.org/2000/svg" width="65" height="58" viewBox="0 0 65 58" fill="none">
  <g clip-path="url(#clip0_0_164)">
    <path d="M3.3431 0V3.26923H9.80713V0H13.1502V7.82093H51.8445V0H55.1876V3.26923H61.6516V0H64.9947V58H61.6516V54.2209H55.1876V58H51.8445V49.8217H13.1555V58H9.81242V54.2209H3.3431V58H0V0H3.3431ZM26.9246 30.1747L33.7537 23.1317L38.1759 27.3628L31.2728 34.4952L26.9246 30.1747ZM37.9431 20.2409C37.7368 20.0464 37.4988 19.9465 37.229 19.957C36.9592 19.957 36.7212 20.0622 36.5308 20.2672L34.9544 21.8965L39.3766 26.1434L40.9688 24.4877C41.1646 24.2932 41.2386 24.0462 41.2386 23.7782C41.2386 23.5101 41.1328 23.2578 40.9424 23.0844L37.9431 20.2409ZM29.6647 36.1613C29.0828 36.3558 28.4904 36.5292 27.9085 36.7237C27.3267 36.9182 26.7448 37.1074 26.1523 37.3019C24.7664 37.7434 24.01 37.9957 23.846 38.043C23.682 38.085 23.7878 37.449 24.1264 36.1193L25.2266 31.9302L25.3166 31.8356L29.6647 36.1613ZM51.8445 11.1427H13.1555V46.4999H51.8498V11.1427H51.8445ZM61.6569 50.8991V44.6971H55.1929V50.8991H61.6569ZM61.6569 41.3753V35.1732H55.1929V41.3753H61.6569ZM61.6569 31.8461V25.644H55.1929V31.8461H61.6569ZM61.6569 22.3222V16.1202H55.1929V22.3222H61.6569ZM61.6569 12.7984V6.59628H55.1929V12.7984H61.6569ZM9.80713 50.8991V44.6971H3.3431V50.8991H9.80713ZM9.80713 41.3753V35.1732H3.3431V41.3753H9.80713ZM9.80713 31.8461V25.644H3.3431V31.8461H9.80713ZM9.80713 22.3222V16.1202H3.3431V22.3222H9.80713ZM9.80713 12.7984V6.59628H3.3431V12.7984H9.80713Z" fill="url(#paint0_linear_0_164)"/>
  </g>
  <defs>
    <linearGradient id="paint0_linear_0_164" x1="19.6623" y1="-8.30207e-06" x2="84.0228" y2="22.3798" gradientUnits="userSpaceOnUse">
      <stop offset="0.214719" stop-color="#1678EA"/>
      <stop offset="1" stop-color="#0E3869"/>
    </linearGradient>
    <clipPath id="clip0_0_164">
      <rect width="65" height="58" fill="white"/>
    </clipPath>
  </defs>
</svg>