<svg xmlns="http://www.w3.org/2000/svg" width="62" height="59" viewBox="0 0 62 59" fill="none">
  <g clip-path="url(#clip0_0_161)">
    <path fill-rule="evenodd" clip-rule="evenodd" d="M3.78923 0H58.2057C59.2401 0 60.1886 0.423922 60.8748 1.1022L60.8799 1.10719L60.8849 1.11217L60.89 1.11716C61.5762 1.80042 62 2.73305 62 3.75545V55.2645C62 56.2969 61.5711 57.2345 60.8849 57.9128C60.1987 58.591 59.2502 59.015 58.2057 59.015H3.78923C2.75489 59.015 1.80632 58.596 1.11508 57.9128L1.11003 57.9078L1.10499 57.9028L1.09994 57.8978C0.413742 57.2145 -0.0100861 56.2819 -0.0100861 55.2595V3.74548C5.08688e-06 2.7131 0.423833 1.77549 1.11003 1.09721C1.1504 1.05731 1.19076 1.01741 1.23617 0.982502C1.91228 0.374049 2.81039 0 3.78923 0ZM33.1948 49.2498C32.3976 49.2498 31.7518 48.5565 31.7518 47.6987C31.7518 46.8409 32.3976 46.1477 33.1948 46.1477H50.9653C51.7625 46.1477 52.4084 46.8409 52.4084 47.6987C52.4084 48.5565 51.7625 49.2498 50.9653 49.2498H33.1948ZM10.5049 49.2498C9.71778 49.2498 9.07699 48.5565 9.07699 47.6987C9.07699 46.8409 9.71778 46.1477 10.5049 46.1477H26.9787C27.7658 46.1477 28.4066 46.8409 28.4066 47.6987C28.4066 48.5565 27.7658 49.2498 26.9787 49.2498H10.5049ZM9.93474 42.472C9.14763 42.472 8.50684 41.7788 8.50684 40.921C8.50684 40.0631 9.14763 39.3699 9.93474 39.3699H26.4085C27.1956 39.3699 27.8364 40.0631 27.8364 40.921C27.8364 41.7788 27.1956 42.472 26.4085 42.472H9.93474ZM33.1948 42.472C32.3976 42.472 31.7518 41.7788 31.7518 40.921C31.7518 40.0631 32.3976 39.3699 33.1948 39.3699H50.9653C51.7625 39.3699 52.4084 40.0631 52.4084 40.921C52.4084 41.7788 51.7625 42.472 50.9653 42.472H33.1948ZM8.87517 17.3409H52.2368V34.1232H8.87517V17.3409ZM58.5741 13.4309C58.453 13.4508 58.3319 13.4608 58.2108 13.4608H3.78923C3.66309 13.4608 3.542 13.4508 3.42595 13.4309V55.2545C3.42595 55.3543 3.46631 55.444 3.52686 55.5089L3.53191 55.5139C3.5975 55.5787 3.68327 55.6136 3.78923 55.6136H58.2057C58.3016 55.6136 58.3924 55.5737 58.4631 55.5039C58.5287 55.4391 58.5741 55.3493 58.5741 55.2495V13.4309ZM25.2884 4.8377C26.6507 4.8377 27.7507 5.92992 27.7507 7.27151C27.7507 8.6131 26.6457 9.70533 25.2884 9.70533C23.9312 9.70533 22.8262 8.6131 22.8262 7.27151C22.8262 5.92992 23.9312 4.8377 25.2884 4.8377ZM16.6756 4.8377C18.0379 4.8377 19.1379 5.92992 19.1379 7.27151C19.1379 8.6131 18.0329 9.70533 16.6756 9.70533C15.3133 9.70533 14.2134 8.6131 14.2134 7.27151C14.2134 5.92992 15.3184 4.8377 16.6756 4.8377ZM8.06788 4.8377C9.43018 4.8377 10.5301 5.92992 10.5301 7.27151C10.5301 8.6131 9.42514 9.70533 8.06788 9.70533C6.70557 9.70533 5.60564 8.6131 5.60564 7.27151C5.60564 5.92992 6.70557 4.8377 8.06788 4.8377Z" fill="url(#paint0_linear_0_161)"/>
  </g>
  <defs>
    <linearGradient id="paint0_linear_0_161" x1="18.7493" y1="-8.44735e-06" x2="80.9649" y2="20.2855" gradientUnits="userSpaceOnUse">
      <stop offset="0.214719" stop-color="#1678EA"/>
      <stop offset="1" stop-color="#0E3869"/>
    </linearGradient>
    <clipPath id="clip0_0_161">
      <rect width="62" height="59" fill="white"/>
    </clipPath>
  </defs>
</svg>