<svg xmlns="http://www.w3.org/2000/svg" width="33" height="33" viewBox="0 0 33 33" fill="none">
  <path d="M1.63382 31.3686L12.4242 20.5783M26.0121 15.78L22.7821 25.4699C22.7306 25.6252 22.6423 25.7658 22.5249 25.8798C22.4074 25.9937 22.2642 26.0776 22.1073 26.1244L2.30695 32.0095C2.12856 32.0625 1.93906 32.0656 1.75907 32.0183C1.57908 31.9711 1.4155 31.8754 1.28612 31.7416C1.15674 31.6079 1.06652 31.4412 1.02529 31.2597C0.984055 31.0783 0.993384 30.889 1.05226 30.7125L7.4817 11.4275C7.52778 11.2891 7.60311 11.1621 7.70258 11.0554C7.80204 10.9486 7.92332 10.8644 8.05818 10.8087L17.192 7.04798C17.3777 6.97129 17.5819 6.9513 17.779 6.99053C17.976 7.02975 18.157 7.12644 18.2992 7.2684L25.7663 14.7372C25.9002 14.8709 25.9941 15.0394 26.0376 15.2236C26.081 15.4078 26.0722 15.6005 26.0121 15.78Z" stroke="white" stroke-width="1.5" stroke-linecap="round" stroke-linejoin="round"/>
  <path d="M26.2122 15.1832L31.0071 10.3866C31.6429 9.75065 32 8.88828 32 7.98909C32 7.0899 31.6429 6.22753 31.0071 5.59161L27.4126 1.9937C27.0977 1.67867 26.7238 1.42876 26.3123 1.25826C25.9008 1.08776 25.4597 1 25.0143 1C24.5689 1 24.1278 1.08776 23.7163 1.25826C23.3048 1.42876 22.9309 1.67867 22.616 1.9937L17.821 6.79035M16.0204 16.9805C15.7841 16.7443 15.5037 16.5571 15.1951 16.4293C14.8864 16.3016 14.5557 16.2358 14.2217 16.2359C13.8876 16.236 13.5569 16.3019 13.2484 16.4298C12.9398 16.5577 12.6594 16.7451 12.4233 16.9813C12.1872 17.2176 11.9999 17.498 11.8721 17.8066C11.7444 18.1152 11.6787 18.446 11.6788 18.78C11.6788 19.114 11.7447 19.4448 11.8726 19.7533C12.0005 20.0619 12.1879 20.3423 12.4242 20.5784C12.9013 21.0553 13.5483 21.3231 14.2229 21.3229C14.8974 21.3228 15.5443 21.0546 16.0212 20.5775C16.4981 20.1004 16.7659 19.4534 16.7658 18.7788C16.7656 18.1042 16.4975 17.4574 16.0204 16.9805Z" stroke="white" stroke-width="1.5" stroke-linecap="round" stroke-linejoin="round"/>
</svg>