<svg xmlns="http://www.w3.org/2000/svg" width="62" height="62" viewBox="0 0 62 62" fill="none">
  <path d="M2.22676 59.7781L23.1113 38.8936M49.4106 29.6065L43.159 48.3612C43.0592 48.6618 42.8884 48.9339 42.661 49.1545C42.4337 49.375 42.1564 49.5374 41.8529 49.6279L3.52958 61.0186C3.18432 61.1211 2.81754 61.127 2.46917 61.0356C2.12081 60.9441 1.80419 60.7589 1.55377 60.5C1.30336 60.2412 1.12875 59.9186 1.04895 59.5674C0.96914 59.2161 0.987194 58.8498 1.10115 58.5081L13.5452 21.1824C13.6344 20.9144 13.7802 20.6687 13.9727 20.4621C14.1653 20.2554 14.4 20.0926 14.661 19.9846L32.3393 12.7059C32.6987 12.5574 33.094 12.5187 33.4754 12.5947C33.8568 12.6706 34.2071 12.8577 34.4823 13.1325L48.9347 27.5882C49.1939 27.8471 49.3758 28.1731 49.4598 28.5296C49.5439 28.8862 49.5268 29.2591 49.4106 29.6065Z" stroke="url(#paint0_linear_0_158)" stroke-width="1.5" stroke-linecap="round" stroke-linejoin="round"/>
  <path d="M49.7978 28.4514L59.0784 19.1676C60.3088 17.9367 61 16.2676 61 14.5273C61 12.7869 60.3088 11.1178 59.0784 9.887L52.1212 2.9233C51.5117 2.31355 50.7881 1.82986 49.9916 1.49986C49.1951 1.16985 48.3414 1 47.4793 1C46.6172 1 45.7635 1.16985 44.967 1.49986C44.1705 1.82986 43.4469 2.31355 42.8374 2.9233L33.5568 12.2071M30.0717 31.93C29.6145 31.4729 29.0717 31.1104 28.4743 30.8632C27.877 30.6159 27.2368 30.4887 26.5903 30.4889C25.9438 30.489 25.3037 30.6165 24.7065 30.8641C24.1093 31.1116 23.5667 31.4744 23.1096 31.9316C22.6526 32.3888 22.2901 32.9316 22.0429 33.529C21.7956 34.1263 21.6684 34.7665 21.6686 35.413C21.6687 36.0595 21.7962 36.6996 22.0438 37.2968C22.2913 37.894 22.654 38.4366 23.1113 38.8937C24.0347 39.8167 25.287 40.335 26.5927 40.3347C27.8983 40.3344 29.1503 39.8155 30.0733 38.892C30.9964 37.9686 31.5147 36.7163 31.5144 35.4107C31.5141 34.105 30.9951 32.853 30.0717 31.93Z" stroke="url(#paint1_linear_0_158)" stroke-width="1.5" stroke-linecap="round" stroke-linejoin="round"/>
  <defs>
    <linearGradient id="paint0_linear_0_158" x1="15.676" y1="12.5568" x2="64.7996" y2="27.7903" gradientUnits="userSpaceOnUse">
      <stop offset="0.214719" stop-color="#1678EA"/>
      <stop offset="1" stop-color="#0E3869"/>
    </linearGradient>
    <linearGradient id="paint1_linear_0_158" x1="33.5672" y1="0.999994" x2="73.3903" y2="13.3562" gradientUnits="userSpaceOnUse">
      <stop offset="0.214719" stop-color="#1678EA"/>
      <stop offset="1" stop-color="#0E3869"/>
    </linearGradient>
  </defs>
</svg>