<svg xmlns="http://www.w3.org/2000/svg" width="49" height="49" viewBox="0 0 49 49" fill="none">
  <g clip-path="url(#clip0_0_128)">
    <path fill-rule="evenodd" clip-rule="evenodd" d="M8.16666 6.125C7.08369 6.125 6.04508 6.55521 5.27931 7.32098C4.51354 8.08675 4.08333 9.12537 4.08333 10.2083V38.7917C4.08333 39.8746 4.51354 40.9132 5.27931 41.679C6.04508 42.4448 7.08369 42.875 8.16666 42.875H40.8333C41.9163 42.875 42.9549 42.4448 43.7207 41.679C44.4865 40.9132 44.9167 39.8746 44.9167 38.7917V10.2083C44.9167 9.12537 44.4865 8.08675 43.7207 7.32098C42.9549 6.55521 41.9163 6.125 40.8333 6.125H8.16666ZM17.6094 17.6196C17.6547 17.2293 17.7906 16.8549 18.0063 16.5264C18.2219 16.198 18.5114 15.9244 18.8515 15.7277C19.1917 15.5309 19.5731 15.4164 19.9654 15.3932C20.3576 15.3701 20.7499 15.4389 21.1108 15.5943C22.1398 16.0353 24.3122 17.0275 27.0643 18.6159C28.9977 19.7226 30.8655 20.9401 32.6585 22.2623C32.9736 22.4968 33.2295 22.8017 33.4058 23.1526C33.5821 23.5035 33.6739 23.8908 33.6739 24.2836C33.6739 24.6763 33.5821 25.0636 33.4058 25.4146C33.2295 25.7655 32.9736 26.0704 32.6585 26.3048C30.8655 27.6257 28.9977 28.8419 27.0643 29.9472C25.1398 31.0696 23.152 32.0799 21.1108 32.9729C20.7499 33.1287 20.3576 33.1979 19.9651 33.1749C19.5727 33.152 19.1911 33.0375 18.8508 32.8407C18.5106 32.6439 18.2211 32.3701 18.0055 32.0414C17.7899 31.7127 17.6543 31.3381 17.6094 30.9476C17.3625 28.7349 17.2425 26.51 17.25 24.2836C17.25 21.117 17.4787 18.7323 17.6094 17.6196Z" fill="#F28F8F"/>
  </g>
  <defs>
    <clipPath id="clip0_0_128">
      <rect width="49" height="49" fill="white"/>
    </clipPath>
  </defs>
</svg>