<svg xmlns="http://www.w3.org/2000/svg" width="52" height="51" viewBox="0 0 52 51" fill="none">
  <g clip-path="url(#clip0_0_132)">
    <path d="M43.3672 0H8.63281C3.86504 0 0 3.88169 0 8.67V42.2484C0 47.0367 3.86504 50.9184 8.63281 50.9184H43.3672C48.135 50.9184 52 47.0367 52 42.2484V8.67C52 3.88169 48.135 0 43.3672 0Z" fill="#001E36"/>
    <path d="M11.7089 35.7072V13.3206C11.7089 13.1574 11.7788 13.0754 11.9184 13.0754L12.1392 13.0748L12.5166 13.0707L13.041 13.0603L14.7981 13.023L16.682 12.9879C17.3446 12.9765 18.0015 12.9703 18.6528 12.9703C20.42 12.9703 21.9082 13.1923 23.1179 13.636C24.209 14.0067 25.2041 14.617 26.0307 15.4226C26.7314 16.121 27.2729 16.9637 27.6179 17.8927C27.9442 18.7966 28.1096 19.7512 28.1064 20.7127C28.1064 22.5816 27.676 24.123 26.8155 25.3372C25.974 26.5218 24.8001 27.4277 23.4437 27.9394L23.3273 27.9823C21.9109 28.5129 20.3424 28.7047 18.6221 28.7167L18.3548 28.7175L17.9581 28.7155L17.758 28.7126L17.535 28.7073L17.4005 28.702L17.3188 28.6977L17.118 28.6904L16.8724 28.6853L16.5027 28.6826L16.4204 28.6824V35.6721C16.4265 35.7149 16.4226 35.7586 16.409 35.7997C16.3954 35.8407 16.3724 35.878 16.342 35.9087C16.3115 35.9393 16.2743 35.9623 16.2334 35.976C16.1926 35.9897 16.1491 35.9936 16.1064 35.9875H11.9533C11.7902 35.9875 11.7089 35.8944 11.7089 35.7072ZM16.4206 17.2794V24.581C16.699 24.6036 16.9782 24.6153 17.2575 24.6161H18.4088C19.2026 24.6134 19.9917 24.4947 20.7515 24.2638L20.903 24.2162C21.5941 24.0101 22.2117 23.6087 22.6822 23.06C23.1193 22.5422 23.3458 21.8288 23.3614 20.9196L23.3624 20.8178C23.3807 20.1401 23.2052 19.4714 22.8564 18.891C22.4899 18.3297 21.9601 17.8954 21.3391 17.6472C20.5282 17.3307 19.6621 17.1818 18.7925 17.2095L18.3501 17.2107L18.071 17.2131L17.8047 17.2166L17.4289 17.2239L17.1547 17.2317L17.0123 17.237L16.822 17.246L16.6599 17.256L16.5675 17.2633L16.4877 17.2711L16.4525 17.2751L16.4206 17.2794ZM41.5939 23.2534C40.9854 22.9393 40.3399 22.7034 39.6728 22.5512L39.5184 22.5177C38.7844 22.3486 38.0351 22.2554 37.2822 22.2397L37.0941 22.2374C36.6527 22.2254 36.212 22.2786 35.786 22.3951C35.5147 22.4557 35.2737 22.6108 35.1055 22.8329C34.9918 23.0106 34.9313 23.2174 34.9312 23.4286C34.9376 23.6334 35.0111 23.8304 35.1404 23.989C35.3256 24.2064 35.5481 24.3887 35.7975 24.5269L35.8731 24.5671C36.3705 24.8361 36.8829 25.0758 37.4079 25.2852C38.5786 25.6788 39.6973 26.2141 40.7392 26.8793C41.449 27.3292 42.0365 27.9492 42.4487 28.6836C42.7952 29.3789 42.9687 30.1482 42.9544 30.9256C42.9753 31.9523 42.6832 32.9609 42.1172 33.8161C41.5112 34.6841 40.6696 35.3589 39.6927 35.7602C38.6695 36.2119 37.413 36.445 35.9233 36.4603L35.7685 36.4611C34.845 36.4705 33.9227 36.3894 33.0149 36.2188L32.8207 36.1808C32.0564 36.0401 31.3124 35.8047 30.6057 35.4801C30.5346 35.4433 30.4746 35.3882 30.4317 35.3204C30.3888 35.2527 30.3646 35.1748 30.3615 35.0945V31.2761C30.3573 31.239 30.3632 31.2015 30.3786 31.1675C30.394 31.1336 30.4183 31.1045 30.4488 31.0833C30.4788 31.0663 30.5132 31.0589 30.5474 31.062C30.5817 31.0651 30.6142 31.0787 30.6406 31.1008C31.4752 31.5951 32.3813 31.9556 33.3265 32.1694C34.1597 32.3792 35.0143 32.4909 35.8731 32.5023C36.6868 32.5023 37.2856 32.3971 37.6695 32.1869C37.8429 32.1072 37.9895 31.9788 38.0917 31.8171C38.1939 31.6555 38.2472 31.4675 38.2452 31.2761C38.2452 30.9729 38.0707 30.6808 37.7219 30.4003C37.5757 30.2828 37.3659 30.1549 37.0929 30.0168L36.9623 29.9523L36.8229 29.8864L36.7498 29.853L36.5966 29.7848C36.5701 29.7732 36.5434 29.7616 36.5168 29.7502L36.3502 29.68L36.2635 29.6443L36.0835 29.5719L35.9901 29.5351L35.7965 29.4603L35.594 29.3842C34.4986 29.0013 33.4601 28.471 32.5067 27.8077C31.8249 27.3314 31.2634 26.7015 30.8673 25.9684C30.5242 25.2781 30.3508 24.5152 30.3615 23.7438C30.3596 22.8168 30.6131 21.9074 31.094 21.1163C31.6424 20.2452 32.4297 19.5516 33.3615 19.1195C34.3846 18.606 35.6635 18.349 37.1985 18.3486C38.0975 18.3413 38.9957 18.4058 39.8846 18.5414C40.5283 18.6234 41.1575 18.7943 41.7546 19.0493C41.8507 19.0771 41.928 19.1483 41.9638 19.2421C41.9876 19.3276 41.9991 19.4159 41.9987 19.5049V23.0432C42.0038 23.1269 41.9638 23.2071 41.8941 23.2534C41.8475 23.2767 41.7961 23.2888 41.744 23.2888C41.6919 23.2888 41.6406 23.2767 41.5939 23.2534Z" fill="#31A8FF"/>
  </g>
  <defs>
    <clipPath id="clip0_0_132">
      <rect width="52" height="51" fill="white"/>
    </clipPath>
  </defs>
</svg>