<svg xmlns="http://www.w3.org/2000/svg" width="22" height="22" viewBox="0 0 22 22" fill="none">
  <path d="M2.75 11C2.75 11.3647 2.89487 11.7144 3.15273 11.9723C3.41059 12.2301 3.76033 12.375 4.125 12.375L15.015 12.375L11.4033 15.9867C11.1605 16.2473 11.0282 16.5921 11.0345 16.9483C11.0408 17.3045 11.1851 17.6444 11.437 17.8963C11.6889 18.1482 12.0288 18.2925 12.385 18.2988C12.7413 18.3051 13.086 18.1729 13.3467 17.93L19.305 11.9717C19.5625 11.7138 19.7071 11.3644 19.7071 11C19.7071 10.6356 19.5625 10.2861 19.305 10.0283L13.3467 4.06999C13.2208 3.93489 13.069 3.82654 12.9003 3.75139C12.7317 3.67624 12.5496 3.63583 12.365 3.63257C12.1803 3.62931 11.9969 3.66327 11.8257 3.73243C11.6545 3.80158 11.499 3.90451 11.3684 4.03508C11.2379 4.16565 11.1349 4.32118 11.0658 4.49239C10.9966 4.6636 10.9627 4.84699 10.9659 5.03161C10.9692 5.21623 11.0096 5.39831 11.0847 5.56697C11.1599 5.73564 11.2682 5.88744 11.4033 6.01332L15.015 9.62499L4.125 9.62499C3.366 9.62499 2.75 10.241 2.75 11Z" fill="white"/>
</svg>