<svg xmlns="http://www.w3.org/2000/svg" width="49" height="49" viewBox="0 0 49 49" fill="none">
  <g clip-path="url(#clip0_0_122)">
    <path d="M22.366 0.869955L0.867238 22.3515C0.592481 22.6253 0.374474 22.9506 0.225721 23.3088C0.0769688 23.667 0.000396729 24.0511 0.000396729 24.439C0.000396729 24.8268 0.0769688 25.2109 0.225721 25.5691C0.374474 25.9273 0.592481 26.2527 0.867238 26.5264L22.366 48.0078C23.5219 49.1625 25.3887 49.1625 26.5444 48.0078L35.5587 39.001C36.5938 37.9666 36.5938 36.2897 35.5587 35.2555C34.5235 34.2212 32.8453 34.2212 31.8102 35.2555L24.9766 42.0834C24.6889 42.3709 24.2523 42.3709 23.9646 42.0834L6.79624 24.9291C6.50855 24.6417 6.50855 24.2054 6.79624 23.9179L23.9646 6.76355C24.2523 6.47624 24.6889 6.47624 24.9766 6.76355L31.8102 13.5916C32.8453 14.6259 34.5235 14.6259 35.5587 13.5916C36.5938 12.5572 36.5938 10.8805 35.5587 9.84614L26.5453 0.840478C25.3848 -0.289584 23.5173 -0.280397 22.366 0.869955Z" fill="url(#paint0_linear_0_122)"/>
    <path d="M22.366 0.869857L0.867238 22.3514C0.592481 22.6252 0.374474 22.9505 0.225721 23.3087C0.0769688 23.6669 0.000396729 24.051 0.000396729 24.4389C0.000396729 24.8267 0.0769688 25.2108 0.225721 25.569C0.374474 25.9272 0.592481 26.2526 0.867238 26.5263L22.366 48.0077C23.5219 49.1624 25.3887 49.1624 26.5444 48.0077L35.5587 39.0009C36.5938 37.9665 36.5938 36.2896 35.5587 35.2554C34.5235 34.2211 32.8453 34.2211 31.8102 35.2554L24.9766 42.0833C24.6889 42.3708 24.2523 42.3708 23.9646 42.0833L6.79624 24.9291C6.50855 24.6416 6.50855 24.2053 6.79624 23.9178L23.9646 6.76345C24.6809 6.14597 25.8498 4.89532 27.5659 4.60247C28.8415 4.38522 30.236 4.86374 31.7495 6.03802L26.5455 0.84019C25.3848 -0.289682 23.5175 -0.280494 22.366 0.869857Z" fill="url(#paint1_linear_0_122)"/>
    <path d="M37.6395 33.2575C38.6746 34.2919 40.3529 34.2919 41.388 33.2575L48.0372 26.6138C48.312 26.34 48.53 26.0147 48.6788 25.6565C48.8275 25.2983 48.9041 24.9142 48.9041 24.5263C48.9041 24.1385 48.8275 23.7544 48.6788 23.3962C48.53 23.038 48.312 22.7126 48.0372 22.4389L41.3302 15.7607C40.2926 14.7277 38.6137 14.7292 37.578 15.7641C36.5429 16.7985 36.5429 18.4752 37.578 19.5096L42.1081 24.036C42.3957 24.3234 42.3957 24.7597 42.1081 25.0472L37.6395 29.5121C36.6044 30.5465 36.6044 32.2234 37.6395 33.2575Z" fill="url(#paint2_linear_0_122)"/>
    <path d="M24.5626 30.3462C27.7685 30.3462 30.3674 27.7495 30.3674 24.5462C30.3674 21.343 27.7685 18.7462 24.5626 18.7462C21.3567 18.7462 18.7578 21.343 18.7578 24.5462C18.7578 27.7495 21.3567 30.3462 24.5626 30.3462Z" fill="url(#paint3_linear_0_122)"/>
  </g>
  <defs>
    <linearGradient id="paint0_linear_0_122" x1="2256.45" y1="4.19299e-05" x2="4299.48" y2="1247.65" gradientUnits="userSpaceOnUse">
      <stop stop-color="#4285EB"/>
      <stop offset="1" stop-color="#2EC7FF"/>
    </linearGradient>
    <linearGradient id="paint1_linear_0_122" x1="2530.49" y1="-7.84813e-05" x2="1521.43" y2="5215.15" gradientUnits="userSpaceOnUse">
      <stop stop-color="#29CDFF"/>
      <stop offset="0.3786" stop-color="#148EFF"/>
      <stop offset="1" stop-color="#0A60FF"/>
    </linearGradient>
    <linearGradient id="paint2_linear_0_122" x1="880.229" y1="-232.121" x2="-432.733" y2="1821.21" gradientUnits="userSpaceOnUse">
      <stop stop-color="#FA816E"/>
      <stop offset="0.41473" stop-color="#F74A5C"/>
      <stop offset="1" stop-color="#F51D2C"/>
    </linearGradient>
    <linearGradient id="paint3_linear_0_122" x1="809.694" y1="-395.269" x2="372.831" y2="1352.25" gradientUnits="userSpaceOnUse">
      <stop stop-color="#FA8E7D"/>
      <stop offset="0.51264" stop-color="#F74A5C"/>
      <stop offset="1" stop-color="#F51D2C"/>
    </linearGradient>
    <clipPath id="clip0_0_122">
      <rect width="49" height="49" fill="white"/>
    </clipPath>
  </defs>
</svg>