<svg xmlns="http://www.w3.org/2000/svg" width="38" height="38" viewBox="0 0 38 38" fill="none">
  <g clip-path="url(#clip0_0_92)">
    <path d="M37.9827 26.917C37.9774 26.8897 37.9703 26.8636 37.9614 26.8369C37.9525 26.8125 37.9447 26.79 37.9335 26.7668C37.9222 26.7454 37.9091 26.7258 37.8961 26.7051C37.8866 26.6914 37.8848 26.6754 37.8747 26.6623C37.867 26.6522 37.8557 26.6487 37.848 26.6392C37.8301 26.619 37.8117 26.6017 37.7916 26.5839C37.7832 26.5762 37.7791 26.5667 37.7708 26.5596L33.1823 22.9906C33.2232 22.55 33.25 22.1053 33.25 21.6635C33.25 16.074 29.998 11.0407 24.9398 8.71741V5.03615C24.9398 5.02369 24.9333 5.01359 24.9327 5.00112C24.9309 4.975 24.9274 4.95065 24.9226 4.92512C24.9173 4.89781 24.9101 4.87228 24.9012 4.84556C24.8929 4.82122 24.8852 4.79865 24.8733 4.77609C24.8626 4.75412 24.849 4.73453 24.8359 4.71434C24.8264 4.70069 24.8246 4.68465 24.8146 4.67159C24.8068 4.6615 24.7956 4.65794 24.7872 4.64844C24.77 4.62825 24.7516 4.61103 24.7314 4.59322C24.7231 4.5855 24.719 4.576 24.7106 4.56887L19.3645 0.411436C19.3521 0.401936 19.3372 0.399561 19.3247 0.391842C19.2903 0.368686 19.2547 0.352654 19.2167 0.337217C19.1811 0.323561 19.1484 0.309904 19.1116 0.302779C19.0748 0.296248 19.038 0.295654 19 0.295654C18.9626 0.295654 18.9257 0.296248 18.8883 0.303373C18.8515 0.310498 18.8189 0.324154 18.7832 0.338404C18.7458 0.353248 18.7102 0.369279 18.6758 0.391842C18.6627 0.400748 18.6473 0.402529 18.6354 0.412029L13.2893 4.56947C13.2792 4.57719 13.2756 4.58847 13.2661 4.59678C13.2477 4.61281 13.2305 4.62944 13.2145 4.64725C13.2056 4.65734 13.1937 4.6615 13.1854 4.67219C13.1747 4.68525 13.1729 4.70128 13.164 4.71494C13.1503 4.73631 13.1361 4.7565 13.1254 4.77906C13.1147 4.80044 13.1076 4.82181 13.0993 4.84497C13.0898 4.87169 13.0826 4.89781 13.0773 4.92572C13.0726 4.95125 13.069 4.97619 13.0672 5.00231C13.0666 5.01478 13.0601 5.02487 13.0601 5.03794V8.718C8.00193 11.0402 4.74996 16.0734 4.74996 21.6635C4.74996 22.1077 4.77667 22.5518 4.81705 22.9906L0.229737 26.5584C0.219643 26.5661 0.216081 26.5774 0.206581 26.5857C0.188174 26.6018 0.170956 26.6184 0.154331 26.6368C0.146018 26.6463 0.134143 26.6504 0.125831 26.6611C0.115737 26.6742 0.113362 26.6902 0.104456 26.7033C0.0907993 26.7253 0.0765493 26.7448 0.0658618 26.768C0.0551743 26.79 0.0480493 26.8113 0.0397368 26.8345C0.0302368 26.8612 0.0237056 26.8862 0.0183618 26.9135C0.0130181 26.9396 0.00945557 26.9645 0.00767432 26.9912C0.00708057 27.0037 0.000549316 27.0138 0.000549316 27.0269V32.962C0.000549316 32.9745 0.00708057 32.9852 0.00767432 32.9976C0.0106431 33.0392 0.0207368 33.0778 0.0320181 33.1182C0.0421118 33.1538 0.0498306 33.1882 0.0658618 33.2209C0.0818931 33.2535 0.103862 33.2808 0.126424 33.3099C0.151362 33.3438 0.175706 33.3758 0.207174 33.4032C0.216674 33.4115 0.220237 33.4228 0.230331 33.4305L5.57646 37.5879C5.59961 37.6063 5.62692 37.6146 5.65246 37.6283C5.66789 37.6378 5.68096 37.6502 5.69699 37.6574C5.70767 37.6627 5.71836 37.6663 5.72964 37.6698C5.79852 37.6966 5.86917 37.7126 5.94042 37.7126H5.94102C5.94102 37.7126 5.94102 37.7126 5.94161 37.7126C6.01286 37.7126 6.08352 37.6966 6.15239 37.6698C6.16367 37.6657 6.17436 37.6621 6.18505 37.6574C6.20108 37.6502 6.21414 37.6378 6.22958 37.6283C6.25511 37.6146 6.28242 37.6063 6.30558 37.5879L11.343 33.6703C13.6319 35.1333 16.2657 35.9129 19 35.9129C21.7336 35.9129 24.3686 35.1333 26.657 33.6698L31.6949 37.5879C31.7181 37.6063 31.7454 37.6146 31.7709 37.6283C31.7864 37.6378 31.7994 37.6502 31.8155 37.6574C31.8261 37.6627 31.8368 37.6663 31.8481 37.6698C31.917 37.6966 31.9876 37.7126 32.0589 37.7126H32.0595C32.0595 37.7126 32.0595 37.7126 32.0601 37.7126C32.1313 37.7126 32.202 37.6966 32.2709 37.6698C32.2821 37.6657 32.2928 37.6621 32.3035 37.6574C32.3196 37.6502 32.3326 37.6378 32.3481 37.6283C32.3736 37.6146 32.4009 37.6063 32.4241 37.5879L37.7702 33.4305C37.7803 33.4228 37.7838 33.4115 37.7933 33.4032C37.8248 33.3758 37.8491 33.3432 37.8741 33.3099C37.8961 33.2803 37.9186 33.2529 37.9346 33.2209C37.9507 33.1888 37.9584 33.1538 37.9685 33.1182C37.9798 33.0778 37.9899 33.0392 37.9928 32.9976C37.9934 32.9852 38 32.9751 38 32.962V27.0275C38 27.015 37.9934 27.0043 37.9928 26.9912C37.9905 26.9657 37.9875 26.942 37.9827 26.917ZM32.0595 23.6217L36.4378 27.0275L32.0595 30.432L27.6812 27.0263L32.0595 23.6217ZM27.3071 28.2405L31.4657 31.4753V35.9064L27.3071 32.6723V28.2405ZM32.6532 31.4753L36.8119 28.2411V32.6723L32.6532 35.9064V31.4753ZM19 1.63219L23.3783 5.03675L19 8.44191L14.6216 5.03734L19 1.63219ZM14.2476 9.09325C14.2476 9.09266 14.2476 9.09147 14.2476 9.09087V6.24978L18.4062 9.48453V13.9163L14.2476 10.6815V9.09325ZM19.5937 9.48453L23.7523 6.25037V9.07722V9.1075V10.6827L19.5937 13.9163V9.48453ZM10.3187 27.0281L5.94042 30.4326L1.56211 27.0269L5.94042 23.6223L10.3187 27.0281ZM1.18805 28.2405L5.34667 31.4753V35.9064L1.18805 32.6723V28.2405ZM6.53417 31.4753L10.6928 28.2411V32.6723L6.53417 35.9064V31.4753ZM11.8803 32.6069V27.0275C11.8803 27.015 11.8738 27.0043 11.8732 26.9912C11.8714 26.9657 11.8678 26.942 11.8631 26.917C11.8577 26.8897 11.8506 26.8636 11.8417 26.8369C11.8328 26.8125 11.8251 26.79 11.8138 26.7668C11.8025 26.7454 11.7895 26.7258 11.7764 26.7051C11.7669 26.6914 11.7651 26.6754 11.755 26.6623C11.7473 26.6522 11.736 26.6487 11.7277 26.6392C11.7105 26.619 11.6921 26.6017 11.6719 26.5839C11.6636 26.5762 11.6594 26.5667 11.6511 26.5596L6.30499 22.401C6.29252 22.3909 6.27708 22.3891 6.26461 22.3808C6.23077 22.3582 6.19633 22.3434 6.15892 22.3279C6.12271 22.3137 6.08886 22.3 6.05146 22.2923C6.01939 22.2864 5.98852 22.2846 5.95527 22.284C5.94577 22.078 5.93746 21.8708 5.93746 21.6635C5.93746 16.7229 8.70552 12.2508 13.0601 10.0284V10.9713C13.0601 10.9838 13.0666 10.9944 13.0678 11.0075C13.0702 11.0485 13.0803 11.0865 13.0916 11.1263C13.1016 11.1625 13.1094 11.1975 13.126 11.2302C13.1414 11.2628 13.1634 11.2901 13.186 11.3192C13.2109 11.3531 13.2352 11.3851 13.2667 11.4124C13.2762 11.4207 13.2798 11.432 13.2899 11.4397L18.636 15.5984C18.6597 15.6168 18.6865 15.6251 18.712 15.6388C18.7274 15.6483 18.7405 15.6607 18.7565 15.6678C18.7672 15.6732 18.7779 15.6768 18.7892 15.6803C18.8581 15.707 18.9287 15.7231 19 15.7231H19.0006H19.0011C19.0724 15.7231 19.1431 15.707 19.2119 15.6803C19.2232 15.6762 19.2339 15.6726 19.2446 15.6678C19.2606 15.6607 19.2737 15.6483 19.2891 15.6388C19.3146 15.6251 19.3414 15.6168 19.3651 15.5984L24.7112 11.4409C24.7213 11.4332 24.7249 11.4219 24.7344 11.4136C24.7659 11.3863 24.7902 11.3537 24.8151 11.3204C24.8371 11.2907 24.8591 11.2634 24.8757 11.2313C24.8911 11.1987 24.8995 11.1642 24.9096 11.1286C24.9208 11.0882 24.9309 11.0497 24.9339 11.0081C24.9345 10.9956 24.941 10.9855 24.941 10.9725V10.0284C29.295 12.252 32.0625 16.7229 32.0625 21.6635C32.0625 21.8702 32.0541 22.0774 32.0446 22.2846C32.0114 22.2852 31.9811 22.287 31.9491 22.2929C31.9116 22.3006 31.8772 22.3137 31.841 22.3285C31.8042 22.3434 31.7697 22.3588 31.7365 22.3808C31.7234 22.3897 31.7074 22.3921 31.6949 22.4016L26.3488 26.559C26.3387 26.5667 26.3351 26.578 26.3256 26.5863C26.3072 26.6023 26.29 26.619 26.2734 26.6374C26.2651 26.6469 26.2532 26.651 26.2449 26.6617C26.2348 26.6748 26.2324 26.6908 26.2235 26.7039C26.2099 26.7258 26.1956 26.7454 26.1849 26.7686C26.1742 26.7906 26.1671 26.8119 26.1588 26.8351C26.1493 26.8618 26.1428 26.8867 26.1374 26.9141C26.1321 26.9402 26.1285 26.9651 26.1267 26.9918C26.1261 27.0043 26.1196 27.0144 26.1196 27.0275V32.6063C23.9999 33.9898 21.5466 34.726 19 34.726C16.4534 34.726 14.0012 33.9898 11.8803 32.6069Z" fill="#D37D32"/>
  </g>
  <defs>
    <clipPath id="clip0_0_92">
      <rect width="38" height="38" fill="white"/>
    </clipPath>
  </defs>
</svg>