<svg xmlns="http://www.w3.org/2000/svg" width="369" height="129" viewBox="0 0 369 129" fill="none">
  <path d="M228.719 118.836L228.743 118.838L228.767 118.838C263.645 119.6 290.321 118.999 316.835 113.909L316.848 113.907L316.862 113.904C326.432 111.85 335.886 108.97 345.163 105.284L345.175 105.28L345.187 105.275C349.501 103.457 353.519 100.669 357.065 97.0559C360.078 94.144 361.798 90.9704 362.005 87.5537C362.213 84.1396 360.895 80.7073 358.286 77.3041L358.278 77.2941C354.839 72.9021 351.039 69.0107 346.943 65.6927C336.424 57.0511 324.905 51.239 313.408 45.8775L313.396 45.8722C284.934 32.9517 255.594 23.6182 225.776 18.0005C192.027 11.1325 157.868 8.33484 123.729 9.64314C98.5495 10.4685 73.4396 13.471 48.5626 18.6307L48.5555 18.6322C34.5641 21.6196 20.5615 24.607 6.54738 27.5944L6.52363 27.5995L6.50009 27.6055L6.02055 27.7273C4.35985 28.0043 3.24709 27.8179 2.5557 27.4182C1.91525 27.0481 1.44173 26.3816 1.29135 25.1878C1.1402 23.9879 1.40735 23.1507 1.97978 22.5026C2.59499 21.8061 3.69162 21.1826 5.47431 20.7309C7.0223 20.3462 8.57036 19.9605 10.1186 19.5748C32.4837 14.0027 54.8793 8.42306 77.5056 5.49997L77.5143 5.49877C103.514 1.95277 129.66 0.624187 155.79 1.52124C200.086 3.13246 244.09 11.5451 286.905 26.5906L286.915 26.5939L286.924 26.5971C303.935 32.2669 320.516 39.9856 336.457 49.6577C343.698 54.4319 350.685 59.8509 357.37 65.8779C360.214 68.5421 362.672 71.8956 364.604 75.7764L364.612 75.7913L364.619 75.8059C368.985 84.0207 368.497 92.9808 363.12 99.8765C359.82 104.04 356.075 107.518 352.014 110.205L352.014 110.205C342.384 116.583 331.82 119.303 321.043 121.334C286.458 127.851 251.66 128.369 216.763 126.043L216.763 126.043C214.464 125.89 212.167 125.741 209.87 125.591C197.983 124.818 186.116 124.046 174.284 122.865C155.96 121.028 137.66 119.103 119.435 116.397C102.318 113.847 85.2238 110.762 68.2368 106.896C58.6869 104.465 49.2733 101.174 40.0628 97.0445L40.0592 97.0429C35.7373 95.1215 31.6726 92.2555 28.0395 88.5494L28.0324 88.5423C24.1075 84.6023 22.0778 79.9593 21.8281 75.135C21.5783 70.3081 23.107 65.2125 26.4533 60.3804C30.593 54.9054 35.5628 50.6985 41.0075 48.02L41.0228 48.0125L41.0378 48.0046C53.4505 41.4728 66.3662 36.7568 79.5519 33.9379L79.5643 33.9353L79.5767 33.9323C97.7457 29.6602 116.228 28.1669 134.655 29.4811C136.883 29.6425 138.254 30.1175 139.031 30.748C139.722 31.3091 140.088 32.114 139.998 33.4376C139.905 34.8165 139.486 35.4864 138.854 35.9051C138.11 36.3973 136.845 36.6988 134.712 36.7537L134.701 36.754L134.689 36.7545C131.325 36.9038 127.946 37.0059 124.56 37.1082C116.846 37.3412 109.089 37.5755 101.351 38.3723C82.2963 40.1052 63.5386 45.4307 45.6566 54.1777L45.6557 54.1781C41.456 56.2369 37.471 58.9514 33.7857 62.2568L33.7856 62.2567L33.7757 62.2658C29.5543 66.1346 27.2806 70.188 27.4398 74.2709C27.5997 78.3736 30.1965 82.0744 34.7179 85.2696L34.7239 85.2738L34.73 85.278C38.9872 88.2119 43.4519 90.6128 48.0649 92.4458L48.0655 92.4461C62.274 98.0821 76.8665 101.912 91.6409 103.882C119.489 108.005 147.366 111.928 175.281 115.089L175.292 115.09C191.597 116.801 207.964 117.692 220.158 118.356C223.316 118.528 226.195 118.684 228.719 118.836Z" fill="url(#paint0_linear_0_110)" stroke="#0C0C0C" stroke-width="2.5"/>
  <defs>
    <linearGradient id="paint0_linear_0_110" x1="111.573" y1="-1.84013e-05" x2="339.953" y2="203.31" gradientUnits="userSpaceOnUse">
      <stop offset="0.214719" stop-color="#1678EA"/>
      <stop offset="1" stop-color="#0E3869"/>
    </linearGradient>
  </defs>
</svg>